# xmcd
#
# Track frame offsets:
#	150
#	17073
#	31633
#	48113
#	65152
#	82187
#	97498
#	114411
#	126193
#	141327
#	156124
#
# Disc length: 2273 seconds
#
# Revision: 1
# Processed by: cddbd v1.5.2PL0 Copyright (c) Steve Scherf et al.
# Submitted via: EasyCDDAExtractor 6.2.0.3
#
DISCID=9708df0b
DTITLE=Διαμάντη - Γι' αυτά τα μάτια
DYEAR=1900
DGENRE=
TTITLE0=Μοναξιά μου
TTITLE1=Δικαίωμά μου
TTITLE2=Γι' αυτά τα μάτια
TTITLE3=Στο σπίτι σου κρυώνεις
TTITLE4=Ένα κουρέλι
TTITLE5=Είδα ένα όνειρο
TTITLE6=Κύκλωσέ με
TTITLE7=Πονάς γιά μένα
TTITLE8=Τρελλή
TTITLE9=Μπορώ - μπορώ
TTITLE10=Ναί μ' αγαπούσες
EXTD=
EXTT0=
EXTT1=
EXTT2=
EXTT3=
EXTT4=
EXTT5=
EXTT6=
EXTT7=
EXTT8=
EXTT9=
EXTT10=
PLAYORDER=
